<svg xmlns="http://www.w3.org/2000/svg" viewBox="27 2 73 123" width="73" height="123" role="img">
  <path d="M 89.00 6.00 L 31.00 6.00 L 31.00 85.00 L 33.00 83.00 L 33.00 82.00 L 36.00 79.00 L 36.00 78.00 L 38.00 76.00 L 38.00 75.00 L 41.00 72.00 L 41.00 71.00 L 44.00 68.00 L 44.00 67.00 L 47.00 64.00 L 47.00 63.00 L 49.00 61.00 L 49.00 60.00 L 52.00 57.00 L 52.00 56.00 L 54.00 54.00 L 54.00 53.00 L 57.00 50.00 L 57.00 49.00 L 60.00 46.00 L 60.00 45.00 L 62.00 43.00 L 61.00 43.00 L 59.00 41.00 L 56.00 40.00 L 54.00 38.00 L 54.00 36.00 L 55.00 35.00 L 56.00 35.00 L 61.00 32.00 L 63.00 32.00 L 65.00 30.00 L 66.00 30.00 L 67.00 29.00 L 68.00 29.00 L 69.00 28.00 L 70.00 28.00 L 71.00 27.00 L 74.00 26.00 L 76.00 24.00 L 76.00 23.00 L 79.00 20.00 L 79.00 19.00 L 82.00 16.00 L 82.00 15.00 L 85.00 12.00 L 85.00 11.00 Z M 66.00 97.00 L 76.00 97.00 L 74.00 97.00 L 73.00 96.00 L 68.00 96.00 L 67.00 97.00 Z" fill="#e3342f"/>
  <path d="M 97.00 6.00 L 91.00 6.00 L 91.00 17.00 L 89.00 19.00 L 89.00 20.00 L 85.00 24.00 L 85.00 37.00 L 84.00 38.00 L 84.00 52.00 L 83.00 53.00 L 83.00 55.00 L 82.00 56.00 L 81.00 56.00 L 79.00 54.00 L 78.00 54.00 L 76.00 52.00 L 75.00 52.00 L 70.00 48.00 L 68.00 48.00 L 66.00 50.00 L 66.00 51.00 L 64.00 53.00 L 64.00 54.00 L 60.00 58.00 L 60.00 59.00 L 58.00 61.00 L 58.00 62.00 L 55.00 65.00 L 55.00 66.00 L 52.00 69.00 L 52.00 70.00 L 49.00 73.00 L 49.00 74.00 L 43.00 81.00 L 43.00 82.00 L 41.00 84.00 L 41.00 85.00 L 38.00 88.00 L 38.00 89.00 L 35.00 92.00 L 31.00 92.00 L 31.00 109.00 L 97.00 109.00 Z" fill="#f6e552"/>
  <path d="M 65.00 45.00 L 64.00 45.00 L 63.00 44.00 L 61.00 46.00 L 61.00 47.00 L 58.00 50.00 L 58.00 51.00 L 56.00 53.00 L 56.00 54.00 L 53.00 57.00 L 53.00 58.00 L 47.00 65.00 L 47.00 66.00 L 45.00 68.00 L 45.00 69.00 L 42.00 72.00 L 42.00 73.00 L 40.00 75.00 L 40.00 76.00 L 37.00 79.00 L 37.00 80.00 L 31.00 87.00 L 31.00 88.00 L 29.00 90.00 L 30.00 91.00 L 35.00 91.00 L 35.00 90.00 L 37.00 88.00 L 37.00 87.00 L 40.00 84.00 L 40.00 83.00 L 43.00 80.00 L 43.00 79.00 L 46.00 76.00 L 46.00 75.00 L 49.00 72.00 L 49.00 71.00 L 55.00 64.00 L 55.00 63.00 L 57.00 61.00 L 57.00 60.00 L 60.00 57.00 L 60.00 56.00 L 62.00 54.00 L 62.00 53.00 L 66.00 49.00 L 66.00 48.00 L 67.00 47.00 Z M 90.00 7.00 L 89.00 8.00 L 89.00 9.00 L 86.00 12.00 L 86.00 13.00 L 83.00 16.00 L 83.00 17.00 L 80.00 20.00 L 80.00 21.00 L 78.00 23.00 L 78.00 24.00 L 77.00 25.00 L 78.00 24.00 L 79.00 24.00 L 84.00 21.00 L 85.00 21.00 L 86.00 22.00 L 86.00 21.00 L 88.00 19.00 L 88.00 18.00 L 89.00 17.00 L 89.00 9.00 L 90.00 8.00 Z" fill="#00a6df"/>
  <path d="M 27.00 2.00 L 27.00 88.00 L 29.00 86.00 L 28.00 85.00 L 28.00 5.00 L 29.00 4.00 L 97.00 4.00 L 98.00 5.00 L 98.00 109.00 L 97.00 110.00 L 30.00 110.00 L 28.00 108.00 L 28.00 91.00 L 27.00 91.00 L 27.00 111.00 L 100.00 111.00 L 100.00 2.00 Z M 54.00 36.00 L 55.00 36.00 L 57.00 38.00 L 58.00 38.00 L 60.00 40.00 L 61.00 40.00 L 64.00 43.00 L 65.00 43.00 L 67.00 45.00 L 70.00 46.00 L 72.00 48.00 L 73.00 48.00 L 75.00 50.00 L 76.00 50.00 L 81.00 54.00 L 81.00 43.00 L 82.00 42.00 L 82.00 28.00 L 83.00 27.00 L 83.00 22.00 L 82.00 22.00 L 81.00 23.00 L 80.00 23.00 L 79.00 24.00 L 78.00 24.00 L 77.00 25.00 L 76.00 25.00 L 75.00 26.00 L 74.00 26.00 L 73.00 27.00 L 70.00 28.00 L 68.00 30.00 L 66.00 30.00 L 65.00 31.00 L 64.00 31.00 L 63.00 32.00 L 62.00 32.00 L 61.00 33.00 L 60.00 33.00 L 59.00 34.00 L 58.00 34.00 L 57.00 35.00 Z M 69.00 70.00 L 69.00 71.00 L 67.00 73.00 L 66.00 76.00 L 64.00 78.00 L 64.00 80.00 L 62.00 82.00 L 62.00 83.00 L 60.00 86.00 L 78.00 86.00 L 78.00 85.00 L 77.00 84.00 L 77.00 83.00 L 76.00 82.00 L 75.00 79.00 L 73.00 77.00 L 72.00 74.00 L 70.00 72.00 L 70.00 71.00 Z M 89.00 119.00 L 89.00 124.00 L 90.00 124.00 L 90.00 121.00 L 91.00 120.00 L 94.00 121.00 L 99.00 125.00 L 100.00 124.00 L 100.00 119.00 L 98.00 119.00 L 98.00 122.00 L 97.00 123.00 L 96.00 123.00 L 94.00 121.00 L 93.00 121.00 L 92.00 120.00 Z M 38.00 124.00 L 36.00 122.00 L 36.00 121.00 L 33.00 118.00 L 31.00 120.00 L 31.00 121.00 L 28.00 124.00 L 31.00 123.00 L 31.00 121.00 L 33.00 119.00 L 35.00 121.00 L 35.00 123.00 Z M 74.00 119.00 L 74.00 124.00 L 79.00 124.00 L 76.00 124.00 L 75.00 123.00 L 75.00 120.00 L 76.00 119.00 Z M 61.00 119.00 L 62.00 120.00 L 62.00 124.00 L 63.00 124.00 L 63.00 119.00 Z M 47.00 119.00 L 47.00 124.00 L 51.00 124.00 L 49.00 124.00 L 48.00 123.00 L 48.00 119.00 Z" fill="#050505"/>
</svg>
