<svg xmlns="http://www.w3.org/2000/svg" viewBox="30 0 75 128" width="75" height="128" role="img" aria-label="groupeseb logo">
<title>groupeseb logo</title>
<path d="M 40 104 L 40 119 L 47 119 L 47 104 Z M 80 0 L 80 39 L 79 40 L 72 40 L 72 47 L 71 48 L 40 48 L 40 87 L 47 87 L 48 88 L 48 95 L 71 95 L 72 96 L 72 103 L 79 103 L 80 104 L 80 111 L 87 111 L 88 112 L 88 119 L 95 119 L 95 96 L 88 96 L 87 95 L 87 88 L 64 88 L 63 87 L 63 80 L 56 80 L 55 79 L 55 72 L 48 72 L 47 71 L 47 56 L 48 55 L 71 55 L 72 56 L 72 63 L 79 63 L 80 64 L 80 71 L 87 71 L 87 0 Z" fill="#d82112" fill-rule="evenodd"/>
<path d="M 96 104 L 96 127 L 103 127 L 103 104 Z M 72 104 L 72 111 L 79 111 L 79 104 Z M 32 104 L 32 111 L 39 111 L 39 104 Z M 63 96 L 56 96 L 56 103 L 55 104 L 48 104 L 48 111 L 55 111 L 55 104 L 56 103 L 63 103 Z M 88 88 L 88 95 L 95 95 L 95 88 Z M 32 80 L 32 87 L 39 87 L 40 88 L 40 95 L 47 95 L 47 88 L 40 88 L 39 87 L 39 80 Z M 56 72 L 56 79 L 63 79 L 63 72 Z M 56 56 L 56 63 L 63 63 L 63 56 Z M 88 24 L 88 39 L 95 39 L 95 24 Z M 88 0 L 88 7 L 95 7 L 95 0 Z" fill="#e79b98" fill-rule="evenodd"/>
<path d="M 80 120 L 80 127 L 87 127 L 87 120 Z M 32 120 L 32 127 L 39 127 L 39 120 Z M 48 112 L 48 119 L 55 119 L 55 112 Z M 64 96 L 64 103 L 71 103 L 71 96 Z M 72 80 L 72 87 L 79 87 L 79 80 Z M 72 64 L 72 71 L 79 71 L 79 64 Z M 48 64 L 48 71 L 55 71 L 55 64 Z M 32 56 L 32 79 L 39 79 L 39 56 Z M 48 40 L 48 47 L 55 47 L 55 40 Z M 72 24 L 72 39 L 79 39 L 79 24 Z M 72 0 L 72 7 L 79 7 L 79 0 Z" fill="#dc5d54" fill-rule="evenodd"/>
</svg>