<svg xmlns="http://www.w3.org/2000/svg" viewBox="0 0 128 128" width="128" height="128" role="img">
  <defs>
    <clipPath id="clipLogo">
  <g clip-path="url(#clipLogo)">
    <path d="M 120.00 36.00 L 119.00 38.00 L 119.00 45.00 L 118.00 47.00 L 116.00 48.00 L 111.00 40.00 L 111.00 37.00 L 109.00 36.00 L 108.00 33.00 L 104.00 29.00 L 98.00 26.00 L 93.00 26.00 L 88.00 29.00 L 85.00 33.00 L 84.00 37.00 L 82.00 40.00 L 81.00 49.00 L 80.00 51.00 L 78.00 52.00 L 78.00 54.00 L 76.00 55.00 L 74.00 49.00 L 74.00 36.00 L 72.00 33.00 L 71.00 26.00 L 69.00 24.00 L 69.00 22.00 L 63.00 15.00 L 55.00 15.00 L 53.00 16.00 L 50.00 19.00 L 50.00 21.00 L 47.00 23.00 L 47.00 27.00 L 45.00 29.00 L 45.00 33.00 L 44.00 34.00 L 44.00 39.00 L 42.00 42.00 L 41.00 78.00 L 40.00 79.00 L 37.00 78.00 L 37.00 76.00 L 34.00 73.00 L 34.00 68.00 L 32.00 66.00 L 31.00 62.00 L 28.00 59.00 L 25.00 59.00 L 24.00 58.00 L 18.00 59.00 L 18.00 61.00 L 15.00 65.00 L 15.00 73.00 L 13.00 75.00 L 12.00 84.00 L 10.00 86.00 L 10.00 91.00 L 8.00 93.00 L 9.00 96.00 L 19.00 109.00 L 20.00 109.00 L 21.00 104.00 L 22.00 103.00 L 25.00 103.00 L 28.00 107.00 L 35.00 113.00 L 40.00 113.00 L 41.00 114.00 L 42.00 113.00 L 45.00 113.00 L 45.00 112.00 L 47.00 111.00 L 51.00 106.00 L 52.00 106.00 L 53.00 101.00 L 55.00 99.00 L 56.00 86.00 L 58.00 84.00 L 59.00 79.00 L 61.00 78.00 L 63.00 81.00 L 63.00 86.00 L 66.00 91.00 L 66.00 94.00 L 67.00 94.00 L 70.00 99.00 L 76.00 103.00 L 81.00 103.00 L 87.00 99.00 L 93.00 89.00 L 93.00 85.00 L 95.00 82.00 L 96.00 58.00 L 97.00 57.00 L 99.00 57.00 L 102.00 60.00 L 103.00 62.00 L 103.00 66.00 L 111.00 75.00 L 119.00 75.00 L 124.00 71.00 L 126.00 72.00 L 126.00 53.00 L 123.00 47.00 L 123.00 42.00 L 121.00 40.00 Z M 20.00 32.00 L 18.00 33.00 L 15.00 37.00 L 15.00 46.00 L 21.00 51.00 L 26.00 51.00 L 28.00 49.00 L 31.00 48.00 L 33.00 42.00 L 33.00 39.00 L 31.00 35.00 L 28.00 32.00 Z" fill="#ffffff"/>
  </g>
</svg>
