<svg xmlns="http://www.w3.org/2000/svg" viewBox="0 36 128 55" width="128" height="55" role="img" aria-label="ruv logo">
<title>ruv logo</title>
<path d="M 0 89 L 15 89 L 15 51 L 16 50 L 22 50 L 26 54 L 26 55 L 27 56 L 27 58 L 26 59 L 25 62 L 22 64 L 20 64 L 23 69 L 23 71 L 25 74 L 25 76 L 27 79 L 27 81 L 28 82 L 28 83 L 29 84 L 29 86 L 31 89 L 46 89 L 46 87 L 44 84 L 44 82 L 43 81 L 43 80 L 41 77 L 41 75 L 38 70 L 39 69 L 52 69 L 53 70 L 53 82 L 62 82 L 63 81 L 63 70 L 64 69 L 75 69 L 76 70 L 76 88 L 77 89 L 92 89 L 92 88 L 97 82 L 97 81 L 99 79 L 99 78 L 101 76 L 101 75 L 103 73 L 103 72 L 105 70 L 105 69 L 107 67 L 107 66 L 109 64 L 109 63 L 111 61 L 111 60 L 113 58 L 113 57 L 115 55 L 115 54 L 118 51 L 118 50 L 120 48 L 120 47 L 122 45 L 122 44 L 124 42 L 124 41 L 126 39 L 126 38 L 110 38 L 110 39 L 108 41 L 108 42 L 106 44 L 106 45 L 100 53 L 99 56 L 93 64 L 92 63 L 92 39 L 91 38 L 77 38 L 77 58 L 76 59 L 64 59 L 63 58 L 63 46 L 62 45 L 54 45 L 53 46 L 53 58 L 52 59 L 41 59 L 40 58 L 40 56 L 41 55 L 41 48 L 40 47 L 39 44 L 36 41 L 35 41 L 32 39 L 30 39 L 29 38 L 0 38 Z" fill="#001655" fill-rule="evenodd"/>
</svg>