<svg xmlns="http://www.w3.org/2000/svg" viewBox="24 40 80 48" width="80" height="48" role="img" aria-label="Wien Energie logo">
<title>Wien Energie logo</title>
<defs>
  <linearGradient id="bg" x1="0" y1="1" x2="1" y2="0">
    <stop offset="0" stop-color="#e33132"/>
    <stop offset="0.55" stop-color="#f26b21"/>
    <stop offset="1" stop-color="#f5c84b"/>
  </linearGradient>
  <radialGradient id="glow" cx="1" cy="0" r="1.05">
    <stop offset="0" stop-color="#ffd45a" stop-opacity="0.85"/>
    <stop offset="0.45" stop-color="#ff8a22" stop-opacity="0.45"/>
    <stop offset="1" stop-color="#e33132" stop-opacity="0"/>
  </radialGradient>
</defs>
<path fill="#fff" d="M 31 77 L 57 77 L 58 80 L 55 81 L 54 83 L 49 85 L 49 86 L 75 86 L 102 67 L 73 67 L 70 68 L 68 73 L 68 81 L 66 84 L 64 83 L 64 79 L 61 69 L 58 67 L 44 67 Z"/>
<path fill="#fff" d="M 28 61 L 58 61 L 61 59 L 62 52 L 65 44 L 67 45 L 69 58 L 73 61 L 86 61 L 100 51 L 73 51 L 72 49 L 77 46 L 77 44 L 80 42 L 76 43 L 74 42 L 56 42 Z"/>
</svg>